# xmcd
#
# Track frame offsets:
#	187
#	11100
#	20715
#	34620
#	47162
#	60885
#	74137
#	89087
#	101612
#	118002
#	129097
#	147067
#	159682
#	179115
#	194372
#	215532
#
# Disc length: 3165 seconds
#
# Revision: 1
# Processed by: cddbd v1.5.1PL0 Copyright (c) Steve Scherf et al.
# Submitted via: CDex 1.50Beta5
#
DISCID=ed0c5b10
DTITLE=桜田淳子 - スペシャル・セレクション
DYEAR=1985
DGENRE=Pop
TTITLE0=天使も夢見る
TTITLE1=天使の初恋
TTITLE2=わたしの青い鳥
TTITLE3=花物語
TTITLE4=三色すみれ
TTITLE5=黄色いリボン
TTITLE6=はじめての出来事
TTITLE7=ひとり歩き
TTITLE8=十七の夏
TTITLE9=夏にご用心
TTITLE10=しあわせ芝居
TTITLE11=追いかけてヨコハマ
TTITLE12=リップスティック
TTITLE13=サンタモニカの風
TTITLE14=化粧
TTITLE15=窓
EXTD=
EXTT0=
EXTT1=
EXTT2=
EXTT3=
EXTT4=
EXTT5=
EXTT6=
EXTT7=
EXTT8=
EXTT9=
EXTT10=
EXTT11=
EXTT12=
EXTT13=
EXTT14=
EXTT15=
PLAYORDER=
